<mxfile host="app.diagrams.net" modified="2023-01-30T12:24:31.122Z" agent="5.0 (Windows NT 10.0; Win64; x64) AppleWebKit/537.36 (KHTML, like Gecko) Chrome/109.0.0.0 Safari/537.36" etag="w0phe0NNYDpatagDRK4K" version="20.8.13" type="github">
  <diagram name="Page-1" id="YR9A6YtAep-Ds8e9Qq5P">
    <mxGraphModel dx="1781" dy="518" grid="1" gridSize="10" guides="1" tooltips="1" connect="1" arrows="1" fold="1" page="1" pageScale="1" pageWidth="827" pageHeight="1169" math="0" shadow="0">
      <root>
        <mxCell id="0" />
        <mxCell id="1" parent="0" />
        <mxCell id="PcFPOeBvJNUKMUGephWx-5" style="edgeStyle=orthogonalEdgeStyle;rounded=0;orthogonalLoop=1;jettySize=auto;html=1;entryX=0;entryY=0.5;entryDx=0;entryDy=0;entryPerimeter=0;" edge="1" parent="1" target="PcFPOeBvJNUKMUGephWx-4">
          <mxGeometry relative="1" as="geometry">
            <mxPoint x="90" y="70" as="sourcePoint" />
          </mxGeometry>
        </mxCell>
        <mxCell id="PcFPOeBvJNUKMUGephWx-12" style="edgeStyle=orthogonalEdgeStyle;rounded=0;orthogonalLoop=1;jettySize=auto;html=1;" edge="1" parent="1" source="PcFPOeBvJNUKMUGephWx-4" target="PcFPOeBvJNUKMUGephWx-8">
          <mxGeometry relative="1" as="geometry" />
        </mxCell>
        <mxCell id="PcFPOeBvJNUKMUGephWx-4" value="APIGATEWAY&lt;br&gt;" style="shape=providedRequiredInterface;html=1;verticalLabelPosition=bottom;sketch=0;whiteSpace=wrap;" vertex="1" parent="1">
          <mxGeometry x="170" y="60" width="20" height="20" as="geometry" />
        </mxCell>
        <mxCell id="PcFPOeBvJNUKMUGephWx-17" style="edgeStyle=orthogonalEdgeStyle;rounded=0;orthogonalLoop=1;jettySize=auto;html=1;entryX=0;entryY=0.5;entryDx=0;entryDy=0;" edge="1" parent="1" source="PcFPOeBvJNUKMUGephWx-8" target="PcFPOeBvJNUKMUGephWx-16">
          <mxGeometry relative="1" as="geometry" />
        </mxCell>
        <mxCell id="PcFPOeBvJNUKMUGephWx-8" value="&lt;p style=&quot;margin:0px;margin-top:6px;text-align:center;&quot;&gt;&lt;b&gt;inventory&lt;/b&gt;&lt;/p&gt;&lt;p style=&quot;margin:0px;margin-top:6px;text-align:center;&quot;&gt;&lt;b&gt;&lt;br&gt;&lt;/b&gt;&lt;/p&gt;&lt;hr&gt;&lt;p style=&quot;margin:0px;margin-left:8px;&quot;&gt;+ Attribute1: Type&lt;br&gt;+ Attribute2: Type&lt;/p&gt;" style="align=left;overflow=fill;html=1;dropTarget=0;" vertex="1" parent="1">
          <mxGeometry x="270" y="40" width="180" height="90" as="geometry" />
        </mxCell>
        <mxCell id="PcFPOeBvJNUKMUGephWx-9" value="" style="shape=component;jettyWidth=8;jettyHeight=4;" vertex="1" parent="PcFPOeBvJNUKMUGephWx-8">
          <mxGeometry x="1" width="20" height="20" relative="1" as="geometry">
            <mxPoint x="-24" y="4" as="offset" />
          </mxGeometry>
        </mxCell>
        <mxCell id="PcFPOeBvJNUKMUGephWx-11" style="edgeStyle=orthogonalEdgeStyle;rounded=0;orthogonalLoop=1;jettySize=auto;html=1;" edge="1" parent="1" source="PcFPOeBvJNUKMUGephWx-10" target="PcFPOeBvJNUKMUGephWx-8">
          <mxGeometry relative="1" as="geometry" />
        </mxCell>
        <mxCell id="PcFPOeBvJNUKMUGephWx-10" value="web" style="shape=module;align=left;spacingLeft=20;align=center;verticalAlign=top;" vertex="1" parent="1">
          <mxGeometry x="130" y="190" width="100" height="50" as="geometry" />
        </mxCell>
        <mxCell id="PcFPOeBvJNUKMUGephWx-13" value="«interface»&lt;br&gt;mobile app" style="html=1;" vertex="1" parent="1">
          <mxGeometry x="-20" y="45" width="110" height="50" as="geometry" />
        </mxCell>
        <mxCell id="PcFPOeBvJNUKMUGephWx-15" style="edgeStyle=orthogonalEdgeStyle;rounded=0;orthogonalLoop=1;jettySize=auto;html=1;" edge="1" parent="1" source="PcFPOeBvJNUKMUGephWx-14" target="PcFPOeBvJNUKMUGephWx-10">
          <mxGeometry relative="1" as="geometry" />
        </mxCell>
        <mxCell id="PcFPOeBvJNUKMUGephWx-14" value="«interface»&lt;br&gt;&lt;b&gt;browser&lt;/b&gt;" style="html=1;" vertex="1" parent="1">
          <mxGeometry x="-20" y="180" width="110" height="50" as="geometry" />
        </mxCell>
        <mxCell id="PcFPOeBvJNUKMUGephWx-16" value="&lt;p style=&quot;margin:0px;margin-top:4px;text-align:center;&quot;&gt;&lt;i&gt;&amp;lt;&amp;lt;Interface&amp;gt;&amp;gt;&lt;/i&gt;&lt;br&gt;&lt;b&gt;inventory db&lt;/b&gt;&lt;/p&gt;&lt;p style=&quot;margin:0px;margin-top:4px;text-align:center;&quot;&gt;&lt;b&gt;&lt;br&gt;&lt;/b&gt;&lt;/p&gt;&lt;hr size=&quot;1&quot;&gt;&lt;p style=&quot;margin:0px;margin-left:4px;&quot;&gt;+ field1: Type&lt;br&gt;+ field2: Type&lt;/p&gt;&lt;hr size=&quot;1&quot;&gt;&lt;p style=&quot;margin:0px;margin-left:4px;&quot;&gt;+ method1(Type): Type&lt;br&gt;+ method2(Type, Type): Type&lt;/p&gt;" style="verticalAlign=top;align=left;overflow=fill;fontSize=12;fontFamily=Helvetica;html=1;" vertex="1" parent="1">
          <mxGeometry x="560" y="40" width="170" height="80" as="geometry" />
        </mxCell>
      </root>
    </mxGraphModel>
  </diagram>
</mxfile>
